<svg width="20" height="20" viewBox="0 0 20 20" fill="none" xmlns="http://www.w3.org/2000/svg">
<path d="M17.7002 3.08641C17.2357 2.62189 16.6842 2.25347 16.0772 2.00219C15.4703 1.75091 14.8197 1.6217 14.1628 1.62195C13.5059 1.6222 12.8554 1.75189 12.2487 2.00363C11.6419 2.25536 11.0907 2.6242 10.6265 3.08906L10.0206 3.70235L9.41973 3.09039L9.41583 3.08649C8.95153 2.62219 8.40034 2.25389 7.79371 2.00261C7.18708 1.75134 6.53689 1.62201 5.88028 1.62201C5.22367 1.62201 4.57348 1.75134 3.96685 2.00261C3.36022 2.25389 2.80903 2.62219 2.34473 3.08649L2.07481 3.35641C1.13713 4.29409 0.610352 5.56586 0.610352 6.89194C0.610352 8.21801 1.13713 9.48978 2.07481 10.4275L9.19876 17.5513L10.0032 18.3942L10.0224 18.375L10.0432 18.3958L10.797 17.6005L17.9701 10.4273C18.9064 9.48892 19.4322 8.21743 19.4322 6.89182C19.4322 5.56621 18.9064 4.29472 17.9701 3.35629L17.7002 3.08641Z" fill="#CE3434"/>
</svg>
