<svg width="20" height="20" viewBox="0 0 20 20" fill="none" xmlns="http://www.w3.org/2000/svg">
<path d="M17.7002 3.08641C17.2357 2.62189 16.6842 2.25347 16.0772 2.00219C15.4703 1.75091 14.8197 1.6217 14.1628 1.62195C13.5059 1.6222 12.8554 1.75189 12.2487 2.00363C11.6419 2.25536 11.0907 2.6242 10.6265 3.08906L10.0206 3.70235L9.41973 3.09039L9.41583 3.08649C8.95153 2.62219 8.40034 2.25389 7.79371 2.00261C7.18708 1.75134 6.53689 1.62201 5.88028 1.62201C5.22367 1.62201 4.57348 1.75134 3.96685 2.00261C3.36022 2.25389 2.80903 2.62219 2.34473 3.08649L2.07481 3.35641C1.13713 4.29409 0.610352 5.56586 0.610352 6.89194C0.610352 8.21802 1.13713 9.48978 2.07481 10.4275L9.19876 17.5513L10.0032 18.3942L10.0224 18.375L10.0432 18.3958L10.797 17.6005L17.9701 10.4273C18.9064 9.48892 19.4322 8.21743 19.4322 6.89182C19.4322 5.56621 18.9064 4.29472 17.9701 3.35629L17.7002 3.08641ZM17.0861 9.54348L10.0224 16.6073L2.95864 9.54348C2.25538 8.84022 1.8603 7.88639 1.8603 6.89184C1.8603 5.89728 2.25538 4.94346 2.95864 4.2402L3.2286 3.97028C3.93152 3.26737 4.88476 2.87231 5.87883 2.87194C6.8729 2.87156 7.82645 3.2659 8.52989 3.96828L10.0179 5.4834L11.513 3.97028C11.8612 3.62205 12.2746 3.34583 12.7296 3.15737C13.1845 2.96891 13.6722 2.87192 14.1646 2.87192C14.6571 2.87192 15.1447 2.96891 15.5997 3.15737C16.0547 3.34583 16.4681 3.62205 16.8163 3.97028L17.0862 4.24016C17.7884 4.944 18.1828 5.89763 18.1827 6.89185C18.1827 7.88607 17.7883 8.83968 17.0861 9.54348Z"/>
</svg>
