<svg width="16" height="16" viewBox="0 0 16 16" fill="none" xmlns="http://www.w3.org/2000/svg">
<g clip-path="url(#clip0)">
<path d="M15.6444 13.9041L12.3463 10.6061C13.1411 9.45878 13.5387 8.17972 13.5387 6.76961C13.5387 5.85295 13.3607 4.97627 13.0048 4.13977C12.6491 3.30314 12.1683 2.58202 11.5626 1.97625C10.9568 1.37048 10.2358 0.889653 9.3993 0.533943C8.56256 0.178133 7.68595 0.000244141 6.76929 0.000244141C5.85271 0.000244141 4.97603 0.178133 4.13953 0.533943C3.30289 0.889653 2.58177 1.37048 1.976 1.97625C1.37017 2.58202 0.889409 3.30327 0.533666 4.13977C0.177889 4.97638 0 5.85295 0 6.76961C0 7.68619 0.177889 8.56257 0.533666 9.39931C0.889375 10.2358 1.37017 10.9568 1.976 11.5626C2.58177 12.1686 3.30303 12.6492 4.13953 13.0051C4.97613 13.3608 5.85271 13.5387 6.76929 13.5387C8.17971 13.5387 9.45857 13.1411 10.606 12.3463L13.9041 15.6347C14.1348 15.8782 14.4229 16.0001 14.7694 16.0001C15.1027 16.0001 15.3913 15.8783 15.6347 15.6347C15.8782 15.3912 16 15.1027 16 14.7694C16.0001 14.4299 15.8816 14.1413 15.6444 13.9041ZM9.8126 9.81257C8.96966 10.6556 7.95531 11.0772 6.76929 11.0772C5.58348 11.0772 4.56913 10.6555 3.72613 9.81257C2.88313 8.96964 2.46164 7.95542 2.46164 6.7694C2.46164 5.58359 2.88323 4.56907 3.72613 3.72624C4.56896 2.8832 5.58348 2.46175 6.76929 2.46175C7.95517 2.46175 8.96953 2.88337 9.8126 3.72624C10.6557 4.56907 11.0771 5.58359 11.0771 6.7694C11.0771 7.95542 10.6555 8.96964 9.8126 9.81257Z" fill="#B5AAA3"/>
</g>
<defs>
<clipPath id="clip0">
<rect width="16" height="16" fill="white"/>
</clipPath>
</defs>
</svg>
