<svg width="50" height="59" viewBox="0 0 50 59" fill="none" xmlns="http://www.w3.org/2000/svg">
<g clip-path="url(#clip0)">
<path d="M28.6751 11.4425C28.8243 12.8929 29.4453 14.2543 30.4428 15.3177C31.4403 16.3812 32.7591 17.0881 34.197 17.3299C35.6349 17.5717 37.1124 17.3351 38.4028 16.6563C39.6933 15.9776 40.7254 14.8942 41.3408 13.5724L42.8075 10.4225C43.0708 9.85691 43.2 9.23817 43.1849 8.61449C43.1698 7.99081 43.0108 7.37905 42.7204 6.82691C42.43 6.27476 42.016 5.79716 41.5106 5.43133C41.0053 5.0655 40.4223 4.82134 39.807 4.71787L33.0206 3.57665C32.4054 3.47319 31.7746 3.51324 31.1774 3.69366C30.5802 3.87408 30.0327 4.19 29.5777 4.61679C29.1226 5.04358 28.7723 5.5697 28.5541 6.15413C28.3358 6.73857 28.2555 7.36552 28.3193 7.9861L28.6751 11.4425ZM30.686 5.79882C30.9583 5.5415 31.2867 5.35112 31.6453 5.24276C32.0038 5.13441 32.3827 5.11105 32.7519 5.17454L39.5383 6.31577C39.9075 6.37784 40.2573 6.52433 40.5605 6.74383C40.8637 6.96333 41.1121 7.2499 41.2864 7.58119C41.4606 7.91248 41.556 8.27954 41.5651 8.65376C41.5741 9.02797 41.4966 9.39922 41.3386 9.73856L39.872 12.8884C39.4062 13.8887 38.6251 14.7086 37.6486 15.2222C36.672 15.7359 35.5538 15.915 34.4657 15.732C33.3776 15.549 32.3795 15.0141 31.6246 14.2093C30.8698 13.4044 30.3998 12.3742 30.2868 11.2766L29.9311 7.82024C29.8913 7.44778 29.9389 7.07119 30.0699 6.72029C30.2009 6.36939 30.4119 6.05383 30.6861 5.79862L30.686 5.79882Z" fill="#D3D1D0"/>
<path d="M39.8722 17.1384C39.587 17.9839 39.615 18.945 39.9509 19.8454C40.2869 20.7459 40.8953 21.4906 41.6643 21.9428C42.4878 22.4269 43.3944 22.5243 44.218 22.2173C45.8552 21.6066 46.6051 19.549 45.8893 17.6305C45.5535 16.7301 44.9451 15.9852 44.1761 15.5332C43.8359 15.3301 43.4614 15.191 43.0712 15.1229C42.5847 15.0393 42.0848 15.0862 41.6224 15.2587C40.7993 15.5658 40.1777 16.2334 39.8722 17.1384ZM41.4076 17.6563C41.554 17.2225 41.8314 16.9102 42.1887 16.7769C42.5461 16.6436 42.9602 16.6981 43.3551 16.9301C43.8043 17.1941 44.1652 17.644 44.3714 18.1968C44.7677 19.2595 44.4383 20.4057 43.6517 20.6991C43.4543 20.7711 43.2413 20.7895 43.0345 20.7524C42.8404 20.7177 42.6544 20.6478 42.4854 20.5462C42.0363 20.2821 41.6754 19.8322 41.4692 19.2794C41.263 18.7266 41.2412 18.1501 41.4076 17.6563Z" fill="#D3D1D0"/>
<path d="M39.1423 20.4199C38.6512 19.871 38.0431 19.5258 37.3879 19.4157C37.1916 19.3828 36.9924 19.371 36.7936 19.3805C35.0481 19.4634 33.7071 21.1948 33.8042 23.2401C33.8497 24.2 34.2023 25.0947 34.797 25.7596C35.4339 26.4716 36.268 26.8408 37.1458 26.799C38.8912 26.7162 40.2322 24.9848 40.1352 22.9395C40.0896 21.9795 39.737 21.0848 39.1423 20.4199ZM37.069 25.1805C36.9885 25.1842 36.9079 25.1793 36.8285 25.1658C36.5315 25.1158 36.2455 24.9482 36.0048 24.6791C35.6574 24.2907 35.4507 23.7523 35.4228 23.1629C35.3689 22.0297 36.0319 21.0386 36.8705 20.9988C37.2515 20.9807 37.6294 21.1587 37.9346 21.4999C38.282 21.8883 38.4887 22.4267 38.5166 23.016C38.5705 24.1496 37.9075 25.1407 37.069 25.1805Z" fill="#D3D1D0"/>
<path d="M23.1286 18.6711C23.8062 19.2305 24.6952 19.4351 25.6316 19.2469C26.5062 19.0712 27.3248 18.5663 27.9366 17.8253C28.5484 17.0843 28.8893 16.185 28.8964 15.2929C28.904 14.3378 28.535 13.5036 27.8573 12.9441C27.4767 12.6298 27.0196 12.4221 26.5326 12.342C26.1415 12.2787 25.7421 12.2876 25.3543 12.3683C24.4797 12.544 23.6611 13.0489 23.0493 13.7899C21.7455 15.3688 21.7811 17.5585 23.1286 18.6711ZM24.2987 14.8215C24.6743 14.3666 25.1625 14.0595 25.6733 13.9569C26.1222 13.8666 26.5314 13.9507 26.8255 14.1936C27.1196 14.4365 27.2795 14.8223 27.2761 15.2802C27.2719 15.8012 27.0628 16.3387 26.6872 16.7934C26.3115 17.2481 25.8233 17.5554 25.3125 17.6581C25.1196 17.6989 24.9209 17.7042 24.7262 17.6736C24.5186 17.641 24.3233 17.554 24.1603 17.4214C23.5129 16.8871 23.5763 15.6964 24.2987 14.8215Z" fill="#D3D1D0"/>
<path d="M31.0725 18.4181C30.8877 18.344 30.6956 18.29 30.4994 18.257C29.8442 18.1468 29.1564 18.2739 28.513 18.6321C27.7336 19.0659 27.1077 19.7961 26.7506 20.6883C25.99 22.5894 26.6909 24.6641 28.3133 25.3133C29.129 25.6398 30.0381 25.5638 30.8728 25.0993C31.6522 24.6656 32.2781 23.9353 32.6351 23.0431C33.3958 21.1421 32.6948 19.0673 31.0725 18.4181ZM31.1307 22.4411C30.9116 22.9889 30.5401 23.4303 30.0848 23.6835C29.7692 23.8591 29.4442 23.9239 29.1472 23.874C29.0678 23.8607 28.99 23.8391 28.9151 23.8093C28.1358 23.4974 27.8335 22.3437 28.2549 21.2906C28.4742 20.7428 28.8456 20.3014 29.3008 20.0482C29.7008 19.8256 30.1159 19.781 30.4703 19.9227C31.2499 20.2344 31.5522 21.3879 31.1307 22.4411Z" fill="#D3D1D0"/>
</g>
<g clip-path="url(#clip1)">
<path d="M15.1703 33.8291C14.5197 35.134 14.3153 36.6163 14.5883 38.0485C14.8613 39.4808 15.5966 40.784 16.6816 41.7581C17.7665 42.7322 19.141 43.3235 20.5943 43.4412C22.0477 43.5589 23.4994 43.1966 24.727 42.4097L27.6523 40.5347C28.1775 40.1981 28.6179 39.7447 28.9391 39.2098C29.2603 38.675 29.4536 38.0732 29.5039 37.4514C29.5543 36.8296 29.4604 36.2045 29.2295 35.6249C28.9985 35.0454 28.6369 34.527 28.1727 34.1102L23.0521 29.5126C22.5879 29.0958 22.0337 28.7919 21.4327 28.6245C20.8317 28.4571 20.2002 28.4308 19.5874 28.5476C18.9745 28.6644 18.397 28.9212 17.8997 29.2979C17.4024 29.6746 16.9989 30.1611 16.7205 30.7194L15.1703 33.8291ZM19.8906 30.1394C20.2583 30.0678 20.6376 30.0829 20.9984 30.1833C21.3593 30.2838 21.6918 30.467 21.9696 30.7183L27.0902 35.3159C27.3687 35.5659 27.5857 35.877 27.7242 36.2247C27.8628 36.5725 27.9192 36.9475 27.8889 37.3206C27.8587 37.6937 27.7427 38.0548 27.55 38.3757C27.3573 38.6966 27.0931 38.9686 26.7779 39.1706L23.8527 41.0456C22.9237 41.641 21.825 41.9152 20.7252 41.8262C19.6254 41.7371 18.5851 41.2896 17.7641 40.5524C16.9431 39.8152 16.3866 38.829 16.18 37.7451C15.9734 36.6612 16.1281 35.5395 16.6204 34.552L18.1706 31.4424C18.3364 31.1065 18.5782 30.8139 18.8768 30.5877C19.1754 30.3615 19.5225 30.208 19.8907 30.1392L19.8906 30.1394Z" fill="#D3D1D0"/>
<path d="M21.5771 44.6351C20.8835 45.1965 20.3925 46.0232 20.1941 46.9635C19.9957 47.9039 20.1108 48.8586 20.5181 49.6523C20.9545 50.5021 21.668 51.0698 22.5279 51.2515C24.2377 51.6124 25.9727 50.2761 26.3955 48.2726C26.594 47.3323 26.479 46.3774 26.0716 45.5839C25.893 45.2302 25.6512 44.9123 25.358 44.6458C24.992 44.3147 24.5447 44.0866 24.0617 43.9847C23.2021 43.8033 22.3197 44.0343 21.5771 44.6351ZM22.5965 45.8947C22.9525 45.6066 23.354 45.4914 23.7272 45.5702C24.1003 45.6489 24.4209 45.9167 24.6302 46.324C24.8682 46.7875 24.9321 47.3607 24.8103 47.938C24.576 49.0478 23.6841 49.8394 22.8626 49.6661C22.6573 49.6212 22.4676 49.5227 22.3128 49.3806C22.1675 49.2474 22.0477 49.0887 21.9595 48.9125C21.7215 48.4489 21.6576 47.8757 21.7795 47.2984C21.9013 46.7212 22.1916 46.2225 22.5965 45.8947Z" fill="#D3D1D0"/>
<path d="M19.2039 47.0154C19.083 46.2888 18.7542 45.6717 18.2598 45.2279C18.1117 45.095 17.9497 44.9783 17.7768 44.88C16.2582 44.0154 14.1985 44.7596 13.1854 46.539C12.7099 47.3741 12.5286 48.3186 12.6749 49.1985C12.8315 50.1408 13.3383 50.8993 14.102 51.334C15.6205 52.1986 17.6801 51.4544 18.6933 49.675C19.1688 48.8398 19.3501 47.8954 19.2039 47.0154ZM14.9038 49.9259C14.8338 49.886 14.7684 49.8386 14.7086 49.7847C14.4845 49.5835 14.3327 49.2888 14.2735 48.9326C14.188 48.4186 14.3017 47.8532 14.5937 47.3405C15.155 46.3545 16.2456 45.8725 16.9752 46.2879C17.3066 46.4766 17.5306 46.8293 17.6056 47.2809C17.691 47.7949 17.5773 48.3603 17.2854 48.873C16.7239 49.8592 15.6333 50.3413 14.9038 49.9259Z" fill="#D3D1D0"/>
<path d="M6.61546 36.964C6.88817 37.7993 7.52952 38.4481 8.42113 38.7906C9.25386 39.1104 10.2155 39.1224 11.129 38.8241C12.0426 38.5258 12.812 37.9488 13.2956 37.1993C13.8134 36.3966 13.9484 35.4945 13.6756 34.6591C13.5225 34.1899 13.2477 33.7697 12.8793 33.4413C12.5829 33.1784 12.2408 32.9721 11.87 32.8325C11.0373 32.5127 10.0756 32.5008 9.16209 32.799C7.21555 33.4344 6.07317 35.3028 6.61546 36.964ZM9.66489 34.3393C10.2258 34.1562 10.8025 34.1582 11.2889 34.3451C11.7163 34.5092 12.0169 34.7993 12.1352 35.1619C12.2535 35.5246 12.182 35.936 11.9339 36.3209C11.6515 36.7587 11.1871 37.1007 10.6263 37.2836C10.0656 37.4665 9.48875 37.4646 9.00231 37.2778C8.81757 37.209 8.64695 37.1071 8.49887 36.9769C8.34098 36.8383 8.22266 36.6602 8.15596 36.461C7.89527 35.6631 8.58635 34.6914 9.66489 34.3393Z" fill="#D3D1D0"/>
<path d="M13.46 41.0043C13.3436 40.8428 13.2102 40.6943 13.0622 40.5613C12.5679 40.1175 11.9189 39.8566 11.1837 39.8146C10.2932 39.7635 9.37354 40.0452 8.59427 40.6076C6.93392 41.8058 6.41502 43.9334 7.43759 45.3504C7.95178 46.0629 8.76017 46.4855 9.71387 46.5401C10.6044 46.5911 11.524 46.3095 12.3032 45.7471C13.9636 44.5489 14.4825 42.4213 13.46 41.0043ZM11.355 44.4332C10.8766 44.7785 10.3266 44.9524 9.80653 44.9224C9.44592 44.9017 9.13673 44.7825 8.91263 44.5813C8.8526 44.5276 8.7985 44.4676 8.75126 44.4024C8.26004 43.7216 8.62244 42.5854 9.54225 41.9217C10.0207 41.5764 10.5708 41.4025 11.0908 41.4324C11.5478 41.4585 11.9223 41.6431 12.1458 41.9526C12.6373 42.6332 12.275 43.7694 11.355 44.4332Z" fill="#D3D1D0"/>
</g>
<defs>
<clipPath id="clip0">
<rect width="25.9252" height="25.9252" fill="white" transform="translate(45.2336 29.8657) rotate(-170.454)"/>
</clipPath>
<clipPath id="clip1">
<rect width="25.9252" height="25.9252" fill="white" transform="translate(19.2905 58.2549) rotate(-138.08)"/>
</clipPath>
</defs>
</svg>
