<svg width="34" height="34" viewBox="0 0 34 34" fill="none" xmlns="http://www.w3.org/2000/svg">
<path d="M17 0.680176C7.98659 0.680176 0.679993 7.98678 0.679993 17.0002C0.679993 26.0136 7.98659 33.3202 17 33.3202C26.0134 33.3202 33.32 26.0136 33.32 17.0002C33.32 7.98678 26.0134 0.680176 17 0.680176ZM23.2764 19.0929C23.2764 19.0929 24.7197 20.5175 25.075 21.1788C25.0852 21.1924 25.0903 21.206 25.0937 21.2128C25.2382 21.4559 25.2722 21.6446 25.2008 21.7857C25.0818 22.0203 24.6738 22.1359 24.5344 22.1461H21.9844C21.8076 22.1461 21.437 22.1002 20.9882 21.7908C20.6431 21.5494 20.3031 21.1533 19.9716 20.7674C19.4769 20.1928 19.0485 19.6964 18.6167 19.6964C18.5618 19.6963 18.5073 19.7049 18.4552 19.7219C18.1288 19.8273 17.7106 20.2931 17.7106 21.5341C17.7106 21.9217 17.4046 22.1444 17.1887 22.1444H16.0208C15.623 22.1444 13.5507 22.005 11.7147 20.0687C9.46729 17.6972 7.44429 12.9406 7.42729 12.8964C7.29979 12.5887 7.56329 12.4238 7.85059 12.4238H10.4261C10.7695 12.4238 10.8817 12.6329 10.9599 12.8182C11.0517 13.0341 11.3883 13.8926 11.9408 14.8582C12.8367 16.4324 13.3858 17.0716 13.8261 17.0716C13.9087 17.0706 13.9897 17.0496 14.0624 17.0104C14.637 16.6908 14.5299 14.6423 14.5044 14.2173C14.5044 14.1374 14.5027 13.301 14.2086 12.8998C13.9978 12.6091 13.6391 12.4986 13.4215 12.4578C13.5096 12.3362 13.6256 12.2377 13.7598 12.1705C14.1542 11.9733 14.8648 11.9444 15.5703 11.9444H15.963C16.728 11.9546 16.9252 12.0039 17.2023 12.0736C17.7633 12.2079 17.7752 12.57 17.7259 13.8093C17.7106 14.1612 17.6953 14.559 17.6953 15.0282C17.6953 15.1302 17.6902 15.239 17.6902 15.3546C17.6732 15.9853 17.6528 16.701 18.0982 16.9951C18.1563 17.0315 18.2234 17.0509 18.292 17.0512C18.4467 17.0512 18.9125 17.0512 20.1739 14.8871C20.5629 14.1905 20.901 13.4667 21.1854 12.7213C21.2109 12.6771 21.2857 12.5411 21.3741 12.4884C21.4393 12.4551 21.5117 12.4382 21.5849 12.4391H24.6126C24.9424 12.4391 25.1685 12.4884 25.211 12.6159C25.2858 12.8182 25.1974 13.4353 23.8153 15.307L23.1982 16.1213C21.9453 17.7635 21.9453 17.8468 23.2764 19.0929Z" fill="#B5AAA3"/>
</svg>
