<svg width="7" height="7" viewBox="0 0 7 7" fill="none" xmlns="http://www.w3.org/2000/svg">
<path d="M3.26016 5.70754C3.28691 5.74641 3.32272 5.77818 3.36448 5.80013C3.40625 5.82208 3.45272 5.83355 3.49991 5.83355C3.54709 5.83355 3.59356 5.82208 3.63533 5.80013C3.67709 5.77818 3.7129 5.74641 3.73966 5.70754L6.36466 1.91588C6.39504 1.87214 6.41286 1.82092 6.41617 1.76777C6.41949 1.71462 6.40818 1.66158 6.38346 1.61441C6.35875 1.56724 6.32158 1.52774 6.276 1.50021C6.23042 1.47268 6.17816 1.45817 6.12491 1.45825H0.874905C0.821776 1.45847 0.769712 1.47317 0.724312 1.50077C0.678912 1.52836 0.641894 1.56781 0.617238 1.61488C0.592582 1.66194 0.581222 1.71483 0.584379 1.76787C0.587536 1.8209 0.605091 1.87207 0.635155 1.91588L3.26016 5.70754Z" fill="#B5AAA3"/>
</svg>
