<svg width="37" height="35" viewBox="0 0 37 35" fill="none" xmlns="http://www.w3.org/2000/svg">
<path d="M33.9164 20.9472L35.9619 9.69719C36.0274 9.33691 36.0129 8.96665 35.9196 8.61257C35.8262 8.2585 35.6562 7.92925 35.4216 7.64812C35.1869 7.36698 34.8934 7.14083 34.5617 6.98563C34.2301 6.83044 33.8684 6.75 33.5022 6.75H7.29328L6.53016 2.55281C6.42566 1.97667 6.12215 1.45552 5.6726 1.08034C5.22304 0.70515 4.65601 0.499754 4.07047 0.5H1.25C0.918479 0.5 0.600537 0.631696 0.366117 0.866117C0.131696 1.10054 0 1.41848 0 1.75C0 2.08152 0.131696 2.39946 0.366117 2.63388C0.600537 2.8683 0.918479 3 1.25 3H4.07031L8.24266 25.9472C8.27996 26.1502 8.34226 26.3478 8.42812 26.5355C7.80403 27.0628 7.34012 27.7544 7.08895 28.5319C6.83779 29.3094 6.80942 30.1417 7.00706 30.9344C7.2047 31.7272 7.62044 32.4488 8.20718 33.0174C8.79391 33.586 9.52818 33.9789 10.3268 34.1516C11.1254 34.3242 11.9564 34.2697 12.7256 33.9943C13.4948 33.7189 14.1715 33.2335 14.679 32.5931C15.1865 31.9528 15.5044 31.1831 15.5969 30.3713C15.6893 29.5595 15.5525 28.738 15.202 28H26.048C25.6418 28.8565 25.5248 29.8217 25.7146 30.7504C25.9043 31.6791 26.3906 32.521 27.1003 33.1494C27.8099 33.7779 28.7044 34.1588 29.6493 34.2349C30.5941 34.3111 31.5381 34.0782 32.3391 33.5715C33.1402 33.0647 33.755 32.3115 34.091 31.4251C34.427 30.5388 34.466 29.5673 34.2022 28.6569C33.9383 27.7464 33.3859 26.9463 32.628 26.377C31.8702 25.8077 30.9479 25.4999 30 25.5H10.7023L10.2477 23H31.4567C32.0423 23.0002 32.6093 22.7948 33.0588 22.4197C33.5084 22.0445 33.8119 21.5233 33.9164 20.9472ZM13.125 29.875C13.125 30.2458 13.015 30.6084 12.809 30.9167C12.603 31.225 12.3101 31.4654 11.9675 31.6073C11.6249 31.7492 11.2479 31.7863 10.8842 31.714C10.5205 31.6416 10.1864 31.463 9.92417 31.2008C9.66195 30.9386 9.48337 30.6045 9.41103 30.2408C9.33868 29.8771 9.37581 29.5001 9.51773 29.1575C9.65964 28.8149 9.89996 28.522 10.2083 28.316C10.5166 28.11 10.8792 28 11.25 28C11.7471 28.0005 12.2237 28.1983 12.5752 28.5498C12.9267 28.9013 13.1245 29.3779 13.125 29.875ZM31.875 29.875C31.875 30.2458 31.765 30.6084 31.559 30.9167C31.353 31.225 31.0601 31.4654 30.7175 31.6073C30.3749 31.7492 29.9979 31.7863 29.6342 31.714C29.2705 31.6416 28.9364 31.463 28.6742 31.2008C28.412 30.9386 28.2334 30.6045 28.161 30.2408C28.0887 29.8771 28.1258 29.5001 28.2677 29.1575C28.4096 28.8149 28.65 28.522 28.9583 28.316C29.2666 28.11 29.6292 28 30 28C30.4971 28.0005 30.9737 28.1983 31.3252 28.5498C31.6767 28.9013 31.8745 29.3779 31.875 29.875ZM7.74781 9.25H33.5022L31.4569 20.5H9.79313L7.74781 9.25Z" fill="#B5AAA3"/>
</svg>
