<svg width="38" height="34" viewBox="0 0 38 34" fill="none" xmlns="http://www.w3.org/2000/svg">
<path d="M34.4002 3.17257C33.4711 2.24354 32.3681 1.50669 31.1542 1.00414C29.9403 0.501577 28.6392 0.24316 27.3253 0.243653C26.0115 0.244146 24.7106 0.50354 23.4971 1.00701C22.2835 1.51048 21.1811 2.24816 20.2527 3.17789L19.0409 4.40445L17.8392 3.18054L17.8314 3.17273C16.9028 2.24414 15.8004 1.50753 14.5872 1.00498C13.3739 0.502432 12.0735 0.243771 10.7603 0.243771C9.44709 0.243771 8.14673 0.502432 6.93346 1.00498C5.7202 1.50753 4.61781 2.24414 3.68922 3.17273L3.14938 3.71257C1.27402 5.58794 0.220459 8.13147 0.220459 10.7836C0.220459 13.4358 1.27402 15.9793 3.14938 17.8547L17.3973 32.1024L19.0063 33.7882L19.0446 33.7498L19.0863 33.7914L20.5938 32.2009L34.94 17.8544C36.8126 15.9776 37.8642 13.4346 37.8642 10.7834C37.8642 8.13217 36.8126 5.58919 34.94 3.71234L34.4002 3.17257ZM33.1719 16.0867L19.0446 30.2143L4.91703 16.0867C3.51052 14.6802 2.72035 12.7725 2.72035 10.7834C2.72035 8.79432 3.51052 6.88667 4.91703 5.48015L5.45696 4.94031C6.86279 3.53449 8.76928 2.74437 10.7574 2.74363C12.7456 2.74288 14.6526 3.53156 16.0595 4.93632L19.0355 7.96656L22.0257 4.94031C22.7221 4.24386 23.5489 3.69141 24.4589 3.3145C25.3688 2.93758 26.3441 2.74359 27.329 2.74359C28.3139 2.74359 29.2892 2.93758 30.1992 3.3145C31.1091 3.69141 31.9359 4.24386 32.6323 4.94031L33.1722 5.48007C34.5766 6.88775 35.3653 8.79502 35.3652 10.7835C35.3651 12.7719 34.5764 14.6791 33.1719 16.0867Z" fill="#B5AAA3"/>
</svg>
