<svg width="18" height="14" viewBox="0 0 18 14" fill="none" xmlns="http://www.w3.org/2000/svg">
<path fill-rule="evenodd" clip-rule="evenodd" d="M1.9687 0.25C1.44656 0.25 0.945799 0.457421 0.576587 0.826634C0.207375 1.19585 -4.64069e-05 1.69661 -4.64069e-05 2.21875L-4.64069e-05 3.04675C-0.000228672 3.05687 -0.000228672 3.067 -4.64069e-05 3.07713L-4.64069e-05 11.7812C-4.64069e-05 12.868 0.881954 13.75 1.9687 13.75H16.0312C16.5534 13.75 17.0541 13.5426 17.4233 13.1734C17.7925 12.8042 18 12.3034 18 11.7812V2.21875C18 1.69661 17.7925 1.19585 17.4233 0.826634C17.0541 0.457421 16.5534 0.25 16.0312 0.25H1.9687ZM16.3125 2.57875V2.21875C16.3125 2.14416 16.2828 2.07262 16.2301 2.01988C16.1773 1.96713 16.1058 1.9375 16.0312 1.9375H1.9687C1.89411 1.9375 1.82257 1.96713 1.76983 2.01988C1.71709 2.07262 1.68745 2.14416 1.68745 2.21875V2.57875L8.99995 6.865L16.3125 2.57875ZM1.68745 4.53625V11.7824C1.68745 11.9376 1.81345 12.0636 1.9687 12.0636H16.0312C16.1058 12.0636 16.1773 12.034 16.2301 11.9812C16.2828 11.9285 16.3125 11.857 16.3125 11.7824V4.53512L9.42745 8.57163C9.29786 8.64779 9.15027 8.68794 8.99995 8.68794C8.84964 8.68794 8.70205 8.64779 8.57245 8.57163L1.68745 4.53512V4.53625Z" fill="#212121"/>
</svg>
