<svg width="55" height="59" viewBox="0 0 55 59" fill="none" xmlns="http://www.w3.org/2000/svg">
<g clip-path="url(#clip0)">
<path d="M42.2901 36.4402C40.8624 36.1443 39.377 36.3249 38.0619 36.9544C36.7467 37.5839 35.6744 38.6275 35.0094 39.9251C34.3444 41.2227 34.1235 42.7026 34.3806 44.1379C34.6377 45.5731 35.3586 46.8843 36.4327 47.8704L38.9922 50.2203C39.4517 50.6422 40.0025 50.9523 40.6016 51.1263C41.2007 51.3004 41.8319 51.3337 42.446 51.2237C43.0601 51.1137 43.6405 50.8633 44.1419 50.4922C44.6433 50.121 45.0522 49.639 45.3367 49.0838L48.4752 42.9594C48.7597 42.4042 48.9122 41.7908 48.9206 41.167C48.9291 40.5432 48.7934 39.9258 48.524 39.3631C48.2547 38.8004 47.859 38.3075 47.3678 37.9228C46.8767 37.5382 46.3033 37.2721 45.6924 37.1455L42.2901 36.4402ZM47.0623 40.0625C47.2254 40.3998 47.3076 40.7704 47.3026 41.1449C47.2975 41.5195 47.2053 41.8877 47.0332 42.2204L43.8947 48.3448C43.724 48.6779 43.4787 48.9671 43.1778 49.1899C42.877 49.4126 42.5287 49.5628 42.1603 49.6288C41.7918 49.6948 41.4131 49.6748 41.0536 49.5704C40.6942 49.4659 40.3637 49.2799 40.0879 49.0267L37.5285 46.6769C36.7157 45.9306 36.1701 44.9383 35.9756 43.8522C35.781 42.766 35.9482 41.6461 36.4514 40.6641C36.9546 39.6821 37.7661 38.8923 38.7614 38.4159C39.7567 37.9395 40.8808 37.8028 41.9613 38.0268L45.3635 38.7321C45.7306 38.8067 46.0752 38.9658 46.3701 39.1967C46.665 39.4277 46.9021 39.7241 47.0625 40.0626L47.0623 40.0625Z" fill="#D3D1D0"/>
<path d="M33.4769 45.3925C32.7571 44.8653 31.8325 44.6015 30.8726 44.6497C29.9128 44.6978 29.0191 45.0528 28.3556 45.6492C27.6453 46.2879 27.2785 47.1227 27.3223 48.0005C27.4097 49.7458 29.1446 51.0823 31.1897 50.9797C32.1495 50.9317 33.0434 50.5768 33.7067 49.9803C34.003 49.7174 34.2487 49.4025 34.4316 49.051C34.6583 48.6126 34.7647 48.1219 34.7399 47.6289C34.6959 46.7515 34.2474 45.9572 33.4769 45.3925ZM32.5193 46.6997C32.8886 46.9703 33.1025 47.3292 33.1216 47.7101C33.1406 48.091 32.9636 48.4693 32.6231 48.7756C32.2357 49.124 31.6978 49.3321 31.1086 49.3616C29.9757 49.4183 28.9827 48.758 28.9406 47.9195C28.9317 47.7095 28.9785 47.501 29.0764 47.315C29.1681 47.1405 29.2909 46.9843 29.4388 46.8539C29.8263 46.5056 30.3642 46.2975 30.9534 46.268C31.5427 46.2385 32.0989 46.3919 32.5193 46.6997Z" fill="#D3D1D0"/>
<path d="M30.5696 43.7054C31.2412 43.4031 31.754 42.9277 32.057 42.3364C32.1477 42.1593 32.2191 41.9729 32.2701 41.7805C32.7185 40.0916 31.4732 38.2901 29.4942 37.7647C28.5654 37.518 27.6059 37.5838 26.7924 37.9498C25.9213 38.3418 25.3173 39.0253 25.0919 39.8747C24.6435 41.5635 25.8887 43.365 27.8677 43.8905C28.7966 44.1372 29.7561 44.0714 30.5696 43.7054ZM26.658 40.2905C26.6788 40.2127 26.7078 40.1374 26.7447 40.0657C26.8821 39.7977 27.1282 39.5757 27.4576 39.4276C27.9327 39.2138 28.5084 39.1794 29.0787 39.3309C30.1752 39.622 30.9196 40.5534 30.7042 41.3648C30.6063 41.7335 30.3225 42.04 29.9049 42.2278C29.4298 42.4416 28.8541 42.476 28.2839 42.3245C27.187 42.0333 26.4426 41.1019 26.658 40.2905Z" fill="#D3D1D0"/>
<path d="M37.0753 28.9688C36.3373 29.4456 35.8736 30.2313 35.77 31.1808C35.6733 32.0676 35.9072 33.0005 36.4287 33.8076C36.9502 34.6148 37.7045 35.2114 38.5527 35.4878C39.4609 35.7836 40.3676 35.6839 41.1057 35.2069C41.5203 34.9391 41.8565 34.5662 42.08 34.1261C42.2585 33.7724 42.3706 33.389 42.411 32.9949C42.5077 32.1081 42.2738 31.1752 41.7523 30.3681C40.6411 28.6482 38.543 28.0205 37.0753 28.9688ZM40.3913 31.2473C40.7115 31.7429 40.8568 32.3011 40.8002 32.819C40.7506 33.2742 40.5468 33.6389 40.2264 33.8458C39.906 34.0528 39.4899 34.0886 39.0545 33.947C38.5591 33.7856 38.1099 33.4239 37.7899 32.9284C37.47 32.4329 37.3245 31.8747 37.381 31.3567C37.4004 31.1605 37.4554 30.9695 37.5434 30.7931C37.6372 30.6051 37.7792 30.4452 37.9548 30.3299C38.6597 29.8742 39.7756 30.2944 40.3913 31.2473Z" fill="#D3D1D0"/>
<path d="M34.9159 36.6175C35.0423 36.4638 35.1519 36.297 35.2427 36.1199C35.5456 35.5287 35.6323 34.8346 35.4853 34.113C35.3073 33.2389 34.8003 32.4217 34.0577 31.8117C32.4754 30.5122 30.2857 30.5535 29.1767 31.9038C28.619 32.5828 28.4167 33.4723 28.6073 34.4083C28.7853 35.2824 29.2923 36.0997 30.0349 36.7096C31.6172 38.0092 33.8068 37.9679 34.9159 36.6175ZM31.0633 35.4574C30.6074 35.083 30.2988 34.5955 30.1951 34.0851C30.123 33.7311 30.1594 33.4017 30.2968 33.1337C30.3334 33.062 30.3776 32.9943 30.4286 32.932C30.9614 32.2833 32.1525 32.3437 33.029 33.0637C33.485 33.4382 33.7935 33.9257 33.8973 34.4361C33.9887 34.8847 33.9058 35.2939 33.6636 35.5889C33.1309 36.2378 31.9399 36.1775 31.0633 35.4574Z" fill="#D3D1D0"/>
</g>
<g clip-path="url(#clip1)">
<path d="M25.0305 16.8022C23.9832 15.7877 22.632 15.1449 21.1841 14.9724C19.7363 14.7999 18.2719 15.1071 17.0155 15.8469C15.7591 16.5868 14.7801 17.7185 14.2288 19.0683C13.6774 20.4181 13.5841 21.9115 13.9633 23.3194L14.8667 26.6745C15.0289 27.2769 15.3281 27.8337 15.7409 28.3015C16.1537 28.7693 16.6689 29.1354 17.2464 29.3713C17.824 29.6072 18.4482 29.7065 19.0704 29.6615C19.6927 29.6165 20.2961 29.4284 20.8337 29.1118L26.7636 25.6198C27.3012 25.3033 27.7584 24.8668 28.0996 24.3445C28.4407 23.8222 28.6566 23.2281 28.7305 22.6086C28.8043 21.9892 28.734 21.361 28.5252 20.7731C28.3163 20.1853 27.9745 19.6536 27.5264 19.2196L25.0305 16.8022ZM27.1215 22.4167C27.0786 22.7888 26.9496 23.1458 26.7448 23.4595C26.54 23.7731 26.2649 24.0347 25.9414 24.2236L20.0115 27.7156C19.6889 27.9055 19.3269 28.0184 18.9535 28.0454C18.5802 28.0724 18.2056 28.0128 17.8591 27.8713C17.5126 27.7298 17.2034 27.5101 16.9558 27.2294C16.7081 26.9487 16.5286 26.6147 16.4313 26.2532L15.5278 22.8981C15.2409 21.8327 15.3115 20.7025 15.7288 19.681C16.146 18.6595 16.8869 17.8031 17.8377 17.2432C18.7885 16.6833 19.8967 16.4508 20.9924 16.5813C22.0881 16.7119 23.1107 17.1984 23.9033 17.966L26.3991 20.3834C26.6691 20.643 26.875 20.9619 27.0004 21.3148C27.1258 21.6678 27.1673 22.0451 27.1216 22.4169L27.1215 22.4167Z" fill="#D3D1D0"/>
<path d="M12.7936 19.6442C12.468 18.8135 11.8283 18.0956 10.9918 17.6224C10.1554 17.1491 9.21051 16.9704 8.33087 17.1188C7.38896 17.2779 6.63217 17.7866 6.19913 18.5514C5.33847 20.0722 6.08804 22.13 7.87021 23.1383C8.70654 23.6117 9.65153 23.7905 10.5311 23.642C10.9222 23.5786 11.2983 23.4442 11.641 23.2452C12.0672 22.9963 12.4198 22.6389 12.6628 22.2093C13.0954 21.4447 13.1419 20.5337 12.7936 19.6442ZM11.2849 20.2355C11.4519 20.6618 11.4404 21.0794 11.2526 21.4113C11.0647 21.7432 10.7126 21.9679 10.2611 22.0443C9.7473 22.1312 9.18158 22.0189 8.66811 21.7283C7.68097 21.1696 7.19588 20.0802 7.6093 19.3495C7.71415 19.1674 7.8654 19.0163 8.04763 18.9117C8.21852 18.8134 8.40592 18.7472 8.6006 18.7163C9.11441 18.6296 9.6801 18.7418 10.1936 19.0324C10.7071 19.323 11.0946 19.7504 11.2849 20.2355Z" fill="#D3D1D0"/>
<path d="M11.2415 16.6625C11.9706 16.7669 12.6583 16.6399 13.2308 16.3027C13.4022 16.2017 13.5623 16.0826 13.7084 15.9474C14.9914 14.761 14.9043 12.5728 13.5142 11.0694C12.8619 10.3637 12.0163 9.90552 11.1333 9.77907C10.1877 9.64369 9.31156 9.89759 8.6664 10.4942C7.38338 11.6805 7.47048 13.8688 8.86053 15.3722C9.51295 16.0779 10.3585 16.5361 11.2415 16.6625ZM9.76637 11.684C9.8256 11.6294 9.89051 11.5813 9.95999 11.5406C10.2195 11.3878 10.5462 11.3321 10.9038 11.3833C11.4195 11.4571 11.9241 11.7364 12.3247 12.1696C13.0949 13.0027 13.2249 14.1879 12.6085 14.7579C12.3284 15.0168 11.9246 15.1237 11.4713 15.0588C10.9556 14.9849 10.451 14.7056 10.0505 14.2724C9.28 13.4392 9.15003 12.2539 9.76637 11.684Z" fill="#D3D1D0"/>
<path d="M24.6268 7.69959C23.7482 7.70716 22.9359 8.12249 22.34 8.86893C21.7835 9.56609 21.4815 10.4792 21.4898 11.4401C21.4981 12.4011 21.8157 13.3089 22.384 13.9964C22.9927 14.7325 23.8118 15.1338 24.6906 15.1262C25.1842 15.122 25.6678 14.9871 26.0922 14.735C26.4323 14.5319 26.7323 14.2682 26.9774 13.9569C27.5339 13.2598 27.8359 12.3466 27.8276 11.3857C27.8101 9.33813 26.3742 7.68459 24.6268 7.69959ZM26.2074 11.3996C26.2125 11.9896 26.0363 12.5387 25.7112 12.9459C25.4256 13.3038 25.0582 13.5027 24.6767 13.5059C24.2953 13.5091 23.9248 13.3166 23.6328 12.9638C23.3008 12.5622 23.1151 12.0162 23.1102 11.4264C23.1053 10.8366 23.2814 10.2873 23.6064 9.88004C23.7278 9.72472 23.8766 9.59289 24.0454 9.49105C24.2253 9.38244 24.4307 9.32345 24.6408 9.32008C25.4802 9.31266 26.1976 10.265 26.2074 11.3996Z" fill="#D3D1D0"/>
<path d="M18.7075 13.0036C18.8965 12.9415 19.0784 12.8593 19.2499 12.7583C19.8223 12.4212 20.2672 11.8814 20.5294 11.1932C20.8471 10.3598 20.8565 9.39804 20.5558 8.48527C19.9153 6.54047 18.0439 5.40293 16.3842 5.94955C15.5496 6.22441 14.9025 6.86732 14.5623 7.75995C14.2446 8.59345 14.2352 9.55518 14.5358 10.4679C15.1763 12.4127 17.0477 13.5502 18.7075 13.0036ZM16.0749 9.96104C15.8902 9.40064 15.8907 8.82374 16.0764 8.33707C16.205 7.99957 16.4121 7.74087 16.6717 7.58804C16.741 7.54705 16.8145 7.5136 16.891 7.48828C17.6883 7.22571 18.6619 7.91448 19.0167 8.99186C19.2013 9.55232 19.2008 10.1292 19.0152 10.6159C18.8522 11.0436 18.5631 11.3448 18.2005 11.4644C17.4032 11.7272 16.4297 11.0385 16.0749 9.96104Z" fill="#D3D1D0"/>
</g>
<defs>
<clipPath id="clip0">
<rect width="25.9252" height="25.9252" fill="white" transform="translate(19.7246 46.6577) rotate(-62.8668)"/>
</clipPath>
<clipPath id="clip1">
<rect width="25.9252" height="25.9252" fill="white" transform="translate(0.501404 13.3491) rotate(-30.4928)"/>
</clipPath>
</defs>
</svg>
