<svg width="34" height="34" viewBox="0 0 34 34" fill="none" xmlns="http://www.w3.org/2000/svg">
<path d="M17 34C26.3888 34 34 26.3888 34 17C34 7.61116 26.3888 0 17 0C7.61116 0 0 7.61116 0 17C0 26.3888 7.61116 34 17 34Z" fill="#B5AAA3"/>
<path d="M16.9085 9.97875C17.0162 9.87978 17.0925 9.8658 17.4677 9.87751C17.6645 9.88431 17.9508 9.90698 18.108 9.92549C18.9006 10.0245 19.5417 10.2156 20.2436 10.5579C20.9345 10.8964 21.3773 11.216 21.9625 11.7981C22.5099 12.3478 22.8143 12.7641 23.137 13.4105C23.5861 14.3122 23.8419 15.3844 23.8857 16.5642C23.9016 16.9669 23.8903 17.0572 23.7985 17.1713C23.6232 17.3949 23.2382 17.3579 23.1075 17.107C23.0652 17.0243 23.0535 16.9529 23.0403 16.6303C23.0172 16.1358 22.9828 15.8166 22.9133 15.4342C22.6413 13.9371 21.9232 12.7411 20.7759 11.8831C19.8193 11.1661 18.8314 10.8155 17.5372 10.7404C17.0989 10.7154 17.023 10.6992 16.924 10.6229C16.7401 10.4774 16.7306 10.1374 16.9085 9.97875ZM19.6542 12.9413C19.1911 12.6655 18.5069 12.4611 17.8832 12.4101C17.6565 12.3916 17.5326 12.3459 17.4476 12.2469C17.3162 12.0973 17.3026 11.8948 17.4129 11.7267C17.5326 11.5409 17.7166 11.5106 18.267 11.593C19.6656 11.7981 20.7487 12.4468 21.4577 13.5004C21.8574 14.0935 22.1056 14.7909 22.191 15.5385C22.2201 15.8124 22.2201 16.3111 22.1876 16.3938C22.1585 16.472 22.0611 16.5782 21.9783 16.622C21.8888 16.6677 21.6969 16.6632 21.5911 16.608C21.4143 16.5188 21.361 16.3757 21.361 15.9896C21.361 15.3934 21.2069 14.7656 20.9398 14.2786C20.6353 13.721 20.1933 13.2616 19.6542 12.9413ZM20.4328 16.0077C20.2972 16.1316 20.0456 16.1362 19.8934 16.0194C19.7834 15.9359 19.7483 15.8483 19.723 15.6122C19.6935 15.2971 19.6384 15.0757 19.5432 14.8714C19.3407 14.4369 18.9837 14.211 18.38 14.1373C18.097 14.1033 18.0113 14.0708 17.9195 13.9624C17.751 13.7626 17.816 13.4384 18.0487 13.3183C18.1359 13.2756 18.1722 13.2703 18.3664 13.282C18.4858 13.2888 18.6633 13.3092 18.7578 13.33C19.2115 13.4267 19.5598 13.5994 19.8563 13.8774C20.2394 14.239 20.4491 14.6757 20.5413 15.3035C20.6036 15.7134 20.5779 15.8744 20.4328 16.0077ZM23.874 22.0506C23.7044 22.4896 23.0406 23.3132 22.5775 23.6649C22.1585 23.9822 21.8608 24.1039 21.4687 24.1231C21.1468 24.1386 21.0131 24.1107 20.6009 23.941C17.3664 22.6094 14.7835 20.6223 12.733 17.8913C11.6623 16.4652 10.8467 14.9866 10.2884 13.4517C9.96461 12.5575 9.94875 12.1687 10.2155 11.7105C10.3311 11.5178 10.821 11.0392 11.1792 10.7728C11.7734 10.3308 12.0477 10.1676 12.2657 10.1212C12.416 10.0887 12.6759 10.1144 12.8418 10.1744C12.9219 10.2016 13.0473 10.2666 13.1179 10.3123C13.5561 10.6025 14.7745 12.1593 15.1727 12.9368C15.4008 13.381 15.4771 13.7093 15.4054 13.9534C15.3313 14.2152 15.2089 14.3534 14.6638 14.7932C14.4447 14.9703 14.2392 15.1517 14.2074 15.2004C14.1243 15.3198 14.0575 15.5548 14.0575 15.7198C14.0597 16.1044 14.3091 16.8007 14.6358 17.3371C14.8897 17.7534 15.3427 18.2868 15.7926 18.6964C16.32 19.1795 16.785 19.5086 17.3109 19.7685C17.9852 20.1043 18.3981 20.189 18.6996 20.0488C18.7759 20.0148 18.8567 19.9683 18.8813 19.9476C18.9043 19.9268 19.0815 19.7107 19.2757 19.4716C19.6486 19.0024 19.7343 18.9264 19.9897 18.8392C20.315 18.7285 20.6463 18.7579 20.9802 18.9283C21.2341 19.0598 21.7868 19.4028 22.1434 19.6506C22.6137 19.9797 23.6183 20.7987 23.7543 20.9619C23.9945 21.2569 24.0361 21.634 23.874 22.0506Z" fill="#847973"/>
</svg>
