<svg width="53" height="13" viewBox="0 0 53 13" fill="none" xmlns="http://www.w3.org/2000/svg">
<path d="M8.25947 6.49997L11.6656 3.09387C12.1514 2.608 12.1514 1.82025 11.6656 1.33438C11.1797 0.848502 10.392 0.848502 9.90608 1.33438L6.49997 4.74048L3.09387 1.33438C2.608 0.848502 1.82025 0.848502 1.33438 1.33438C0.848502 1.82025 0.848502 2.608 1.33438 3.09387L4.74048 6.49997L1.33438 9.90608C0.848502 10.392 0.848502 11.1797 1.33438 11.6656C1.57731 11.9085 1.89571 12.03 2.21411 12.03C2.53251 12.03 2.85093 11.9085 3.09385 11.6656L6.49997 8.25947L9.90608 11.6656C10.149 11.9085 10.4674 12.03 10.7858 12.03C11.1042 12.03 11.4226 11.9085 11.6655 11.6656C12.1514 11.1797 12.1514 10.392 11.6655 9.90608L8.25947 6.49997Z" fill="#B5AAA3"/>
<path d="M27.8948 6.49997L31.5629 3.09387C32.0862 2.608 32.0862 1.82025 31.5629 1.33438C31.0396 0.848502 30.1914 0.848502 29.6681 1.33438L26 4.74048L22.3319 1.33438C21.8086 0.848502 20.9603 0.848502 20.437 1.33438C19.9138 1.82025 19.9138 2.608 20.437 3.09387L24.1051 6.49997L20.437 9.90608C19.9138 10.392 19.9138 11.1797 20.437 11.6656C20.6986 11.9085 21.0415 12.03 21.3844 12.03C21.7273 12.03 22.0702 11.9085 22.3318 11.6656L26 8.25947L29.6681 11.6656C29.9297 11.9085 30.2726 12.03 30.6155 12.03C30.9584 12.03 31.3013 11.9085 31.5629 11.6656C32.0861 11.1797 32.0861 10.392 31.5629 9.90608L27.8948 6.49997Z" fill="#B5AAA3"/>
<path d="M48.2595 6.49997L51.6656 3.09387C52.1514 2.608 52.1514 1.82025 51.6656 1.33438C51.1797 0.848502 50.392 0.848502 49.9061 1.33438L46.5 4.74048L43.0939 1.33438C42.608 0.848502 41.8203 0.848502 41.3344 1.33438C40.8485 1.82025 40.8485 2.608 41.3344 3.09387L44.7405 6.49997L41.3344 9.90608C40.8485 10.392 40.8485 11.1797 41.3344 11.6656C41.5773 11.9085 41.8957 12.03 42.2141 12.03C42.5325 12.03 42.8509 11.9085 43.0938 11.6656L46.5 8.25947L49.9061 11.6656C50.149 11.9085 50.4674 12.03 50.7858 12.03C51.1042 12.03 51.4226 11.9085 51.6655 11.6656C52.1514 11.1797 52.1514 10.392 51.6655 9.90608L48.2595 6.49997Z" fill="#B5AAA3"/>
</svg>
